<svg width="24" height="24" viewBox="0 0 24 24" fill="none" xmlns="http://www.w3.org/2000/svg">
<path d="M19.75 22H4.25C3.01 22 2 20.99 2 19.75V4.25C2 3.01 3.01 2 4.25 2H19.75C20.99 2 22 3.01 22 4.25V19.75C22 20.99 20.99 22 19.75 22ZM4.25 3.5C3.836 3.5 3.5 3.837 3.5 4.25V19.75C3.5 20.163 3.836 20.5 4.25 20.5H19.75C20.164 20.5 20.5 20.163 20.5 19.75V4.25C20.5 3.837 20.164 3.5 19.75 3.5H4.25Z" fill="#D9D9D9"/>
<path d="M17 8.63989H7C6.586 8.63989 6.25 8.30289 6.25 7.88989C6.25 7.47689 6.586 7.13989 7 7.13989H17C17.414 7.13989 17.75 7.47489 17.75 7.88989C17.75 8.30489 17.414 8.63989 17 8.63989ZM17 12.7499H7C6.586 12.7499 6.25 12.4139 6.25 11.9999C6.25 11.5859 6.586 11.2499 7 11.2499H17C17.414 11.2499 17.75 11.5859 17.75 11.9999C17.75 12.4139 17.414 12.7499 17 12.7499ZM12 16.8599H7C6.586 16.8599 6.25 16.5249 6.25 16.1099C6.25 15.6949 6.586 15.3599 7 15.3599H12C12.414 15.3599 12.75 15.6969 12.75 16.1099C12.75 16.5229 12.414 16.8599 12 16.8599Z" fill="#D9D9D9"/>
</svg>
