<svg width="18" height="18" viewBox="0 0 18 18" fill="none" xmlns="http://www.w3.org/2000/svg">
<path d="M15.4583 5.09157H13.8917C13.7333 2.52491 11.6033 0.486572 9.00001 0.486572C6.39667 0.486572 4.26667 2.52657 4.10834 5.09157H2.54167C1.50834 5.09157 0.666672 5.93074 0.666672 6.96657V15.4916C0.666672 16.5249 1.50834 17.3666 2.54167 17.3666H15.4583C16.4917 17.3666 17.3333 16.5249 17.3333 15.4916V6.96657C17.3333 5.93157 16.4917 5.09157 15.4583 5.09157V5.09157ZM9.62501 12.0724V13.2357C9.62501 13.5807 9.34501 13.8607 9.00001 13.8607C8.65501 13.8607 8.37501 13.5807 8.37501 13.2357V12.0724C7.73834 11.8224 7.28584 11.2057 7.28584 10.4807C7.28584 9.53324 8.05251 8.76574 9.00001 8.76574C9.94667 8.76574 10.7142 9.53241 10.7142 10.4791C10.7142 11.2041 10.2617 11.8207 9.62501 12.0707V12.0724ZM5.37334 5.09157C5.53167 3.21657 7.08751 1.73657 9.00001 1.73657C10.9125 1.73657 12.4692 3.21741 12.6267 5.08907H5.37334V5.09157Z" fill="#D9D9D9"/>
</svg>
