<svg width="24" height="24" viewBox="0 0 24 24" fill="none" xmlns="http://www.w3.org/2000/svg">
<path d="M23.643 4.93695C22.808 5.30695 21.911 5.55695 20.968 5.66995C21.93 5.09395 22.668 4.17995 23.016 3.09195C22.116 3.62595 21.119 4.01395 20.058 4.22195C19.208 3.31795 17.998 2.75195 16.658 2.75195C14.086 2.75195 12 4.83795 12 7.41195C12 7.77595 12.042 8.12995 12.12 8.47195C8.247 8.27695 4.816 6.42195 2.518 3.60395C2.118 4.29395 1.888 5.09395 1.888 5.94595C1.888 7.56195 2.711 8.98895 3.96 9.82395C3.196 9.79895 2.478 9.58995 1.85 9.24095V9.30095C1.85 11.558 3.455 13.441 5.587 13.869C5.195 13.975 4.784 14.031 4.36 14.031C4.06 14.031 3.767 14.003 3.483 13.949C4.076 15.799 5.796 17.147 7.835 17.183C6.24 18.433 4.231 19.178 2.049 19.178C1.673 19.178 1.302 19.156 0.936996 19.113C2.999 20.436 5.447 21.206 8.077 21.206C16.647 21.206 21.332 14.108 21.332 7.95195C21.332 7.75195 21.327 7.54995 21.318 7.34995C22.228 6.69195 23.018 5.87295 23.641 4.93995L23.643 4.93695Z" fill="#D9D9D9"/>
</svg>
